# xmcd
#
# Track frame offsets:
#	150
#	10244
#	30898
#	40839
#	54528
#	65764
#	75099
#	102428
#	112911
#	123264
#
# Disc length: 1784 seconds
#
# Revision: 0
# Processed by: cddbd v1.5.2PL0 Copyright (c) Steve Scherf et al.
# Submitted via: EasyCDDAExtractor 16.0.1.1
#
DISCID=6e06f60a
DTITLE=Tommy Collins - Callin'
DYEAR=1972
DGENRE=Country
TTITLE0=You Gotta Have A License
TTITLE1=Cigarette Milner
TTITLE2=Hot Rod Guitar
TTITLE3=Roots Of My Raising
TTITLE4=I Could Sing All Night Long
TTITLE5=Okie From Muskogee
TTITLE6=Opal, You Asked Me
TTITLE7=Wildwood Flower
TTITLE8=If You Ain't Lovin' (You Ain't Livin')
TTITLE9=My Last Chance With You
EXTD=
EXTT0=
EXTT1=
EXTT2=
EXTT3=
EXTT4=
EXTT5=
EXTT6=
EXTT7=
EXTT8=
EXTT9=
PLAYORDER=
